<svg width="64" height="39" viewBox="0 0 64 39" fill="none" xmlns="http://www.w3.org/2000/svg">
<rect x="27" y="13" width="23" height="9" fill="#F2A438"/>
<path d="M6.50391 15.0625C6.39323 15.0625 6.29232 15.0658 6.20117 15.0723C6.11003 15.0788 6.02214 15.082 5.9375 15.082V20.541H6.39648C7.02148 20.541 7.62044 20.4987 8.19336 20.4141C8.76628 20.3229 9.27083 20.1699 9.70703 19.9551C10.1497 19.7402 10.5013 19.4538 10.7617 19.0957C11.0286 18.7376 11.1621 18.2852 11.1621 17.7383C11.1621 17.3411 11.084 16.9993 10.9277 16.7129C10.778 16.4264 10.5762 16.1855 10.3223 15.9902C10.0684 15.7884 9.77539 15.6289 9.44336 15.5117C9.11784 15.388 8.78255 15.2936 8.4375 15.2285C8.09245 15.1634 7.75065 15.1211 7.41211 15.1016C7.08008 15.0755 6.77734 15.0625 6.50391 15.0625ZM12.5586 10.8047C12.5586 10.3424 12.4479 9.93555 12.2266 9.58398C12.0117 9.23242 11.7253 8.92969 11.3672 8.67578C11.0091 8.42188 10.599 8.21354 10.1367 8.05078C9.67448 7.88151 9.19596 7.7513 8.70117 7.66016C8.21289 7.5625 7.72786 7.50065 7.24609 7.47461C6.76432 7.44857 6.32812 7.44531 5.9375 7.46484V14.0176C6.28906 14.0176 6.69596 14.0176 7.1582 14.0176C7.62044 14.0176 8.0957 13.9915 8.58398 13.9395C9.07878 13.8874 9.5638 13.8027 10.0391 13.6855C10.5143 13.5684 10.9375 13.3893 11.3086 13.1484C11.6797 12.9076 11.9792 12.5983 12.207 12.2207C12.4414 11.8431 12.5586 11.3711 12.5586 10.8047ZM13.584 10.8047C13.584 11.3255 13.4928 11.804 13.3105 12.2402C13.1348 12.6699 12.8906 13.0508 12.5781 13.3828C12.2656 13.7083 11.8945 13.9785 11.4648 14.1934C11.0352 14.4082 10.5664 14.5579 10.0586 14.6426C10.3841 14.7598 10.6771 14.9193 10.9375 15.1211C11.2044 15.3229 11.429 15.5573 11.6113 15.8242C11.8001 16.0846 11.9434 16.3776 12.041 16.7031C12.1452 17.0221 12.1973 17.3672 12.1973 17.7383C12.1973 18.2396 12.1257 18.679 11.9824 19.0566C11.8392 19.4277 11.6341 19.7533 11.3672 20.0332C11.1068 20.3066 10.7943 20.5378 10.4297 20.7266C10.0651 20.9089 9.66471 21.0553 9.22852 21.166C8.79232 21.2832 8.32357 21.3711 7.82227 21.4297C7.32747 21.4948 6.81315 21.5371 6.2793 21.5566C5.4069 21.5632 4.6582 21.5273 4.0332 21.4492C3.4082 21.3776 2.89062 21.2962 2.48047 21.2051C2.07682 21.1139 1.77409 21.0293 1.57227 20.9512C1.37044 20.8665 1.25977 20.8177 1.24023 20.8047C1.05143 20.7135 0.957031 20.5573 0.957031 20.3359C0.957031 20.1992 1.01237 20.082 1.12305 19.9844C1.24023 19.8867 1.36068 19.8379 1.48438 19.8379C1.52344 19.8379 1.55924 19.8411 1.5918 19.8477C1.63086 19.8542 1.66667 19.8639 1.69922 19.877C1.71224 19.89 1.79362 19.9258 1.94336 19.9844C2.0931 20.043 2.31771 20.1081 2.61719 20.1797C2.61068 19.8021 2.60417 19.3105 2.59766 18.7051C2.59115 18.0996 2.58138 17.429 2.56836 16.6934C2.56185 15.9512 2.55208 15.1732 2.53906 14.3594C2.53255 13.5391 2.52604 12.7318 2.51953 11.9375C2.51302 11.1432 2.50651 10.3848 2.5 9.66211C2.49349 8.93945 2.49349 8.30469 2.5 7.75781C2.33724 7.79036 2.18099 7.82617 2.03125 7.86523C1.88802 7.9043 1.7513 7.94336 1.62109 7.98242C1.58854 7.98242 1.5625 7.98568 1.54297 7.99219C1.52344 7.9987 1.50391 8.00195 1.48438 8.00195C1.33464 8.00195 1.20768 7.94987 1.10352 7.8457C1.00586 7.73503 0.957031 7.61458 0.957031 7.48438C0.957031 7.3737 0.989583 7.27279 1.05469 7.18164C1.11979 7.09049 1.20768 7.02214 1.31836 6.97656C1.87174 6.82031 2.53255 6.69336 3.30078 6.5957C4.07552 6.49154 4.90885 6.43945 5.80078 6.43945C6.3151 6.43945 6.86198 6.46224 7.44141 6.50781C8.02734 6.55339 8.60677 6.63802 9.17969 6.76172C9.75911 6.87891 10.3125 7.04167 10.8398 7.25C11.3737 7.45833 11.8424 7.72526 12.2461 8.05078C12.6562 8.36979 12.9818 8.75716 13.2227 9.21289C13.4635 9.66211 13.584 10.1927 13.584 10.8047ZM26.377 20.7363C26.3574 20.8665 26.2988 20.9707 26.2012 21.0488C26.1035 21.1335 25.9896 21.1758 25.8594 21.1758H25.8398C24.0885 21.0586 22.3796 21 20.7129 21C19.0202 21 17.3893 21.0586 15.8203 21.1758H15.7715C15.6217 21.1628 15.498 21.1107 15.4004 21.0195C15.3027 20.9284 15.2539 20.8079 15.2539 20.6582C15.2539 20.528 15.2995 20.4173 15.3906 20.3262C15.4818 20.2285 15.5957 20.1732 15.7324 20.1602C15.9408 20.1406 16.1491 20.1276 16.3574 20.1211C16.5723 20.1081 16.7839 20.0951 16.9922 20.082V8.17773C16.7839 8.16471 16.5755 8.1582 16.3672 8.1582C16.1654 8.1582 15.9603 8.1582 15.752 8.1582C15.6152 8.14518 15.498 8.0931 15.4004 8.00195C15.3027 7.9043 15.2539 7.78385 15.2539 7.64062C15.2539 7.4974 15.306 7.37695 15.4102 7.2793C15.5143 7.17513 15.6348 7.12305 15.7715 7.12305C16.0189 7.13607 16.2565 7.14258 16.4844 7.14258C16.7188 7.14258 16.9499 7.14258 17.1777 7.14258C18.5645 7.14258 19.9382 7.09701 21.2988 7.00586C22.6595 6.91471 24.0169 6.77799 25.3711 6.5957H25.459C25.5892 6.5957 25.6999 6.64128 25.791 6.73242C25.8822 6.81706 25.9375 6.91797 25.957 7.03516L26.377 10.3359V10.4043C26.377 10.554 26.3216 10.6745 26.2109 10.7656C26.1068 10.8568 25.9896 10.9023 25.8594 10.9023C25.7357 10.9023 25.625 10.8633 25.5273 10.7852C25.4362 10.7005 25.3776 10.5931 25.3516 10.4629L25 7.67969C24.2448 7.78385 23.4863 7.86849 22.7246 7.93359C21.9694 7.99219 21.2077 8.04102 20.4395 8.08008V14.5156C20.5957 14.5091 20.804 14.4993 21.0645 14.4863C21.3249 14.4733 21.6048 14.4538 21.9043 14.4277C22.2103 14.4017 22.5195 14.3724 22.832 14.3398C23.151 14.3008 23.4473 14.2552 23.7207 14.2031H23.8184C23.9551 14.2031 24.0755 14.2552 24.1797 14.3594C24.2839 14.457 24.3359 14.571 24.3359 14.7012C24.3359 14.8314 24.2969 14.9421 24.2188 15.0332C24.1406 15.1243 24.0397 15.1862 23.916 15.2188C23.6165 15.2773 23.2943 15.3262 22.9492 15.3652C22.6107 15.4043 22.2786 15.4368 21.9531 15.4629C21.6341 15.4824 21.3411 15.4987 21.0742 15.5117C20.8073 15.5247 20.5957 15.5345 20.4395 15.541V19.9844H20.7129C21.4876 19.9844 22.2656 19.9941 23.0469 20.0137C23.8346 20.0332 24.6257 20.069 25.4199 20.1211L25.7715 17.5039C25.7975 17.3737 25.8561 17.2695 25.9473 17.1914C26.0449 17.1068 26.1556 17.0645 26.2793 17.0645C26.4355 17.0645 26.5592 17.1198 26.6504 17.2305C26.748 17.3411 26.7969 17.4518 26.7969 17.5625V17.6406L26.377 20.7363Z" fill="black"/>
<path d="M16.4355 23.9961C16.4355 24.1784 16.3965 24.3216 16.3184 24.4258C16.2402 24.5234 16.1458 24.5885 16.0352 24.6211C15.6771 24.6927 15.332 24.7513 15 24.7969C14.668 24.8424 14.3359 24.8783 14.0039 24.9043C13.9714 25.1973 13.9225 25.6823 13.8574 26.3594C13.7988 27.0299 13.7402 27.8568 13.6816 28.8398C13.623 29.8164 13.571 30.9264 13.5254 32.1699C13.4798 33.4134 13.457 34.7513 13.457 36.1836V37.1406C13.7826 37.1406 14.1048 37.1504 14.4238 37.1699C14.7428 37.1829 15.0749 37.2057 15.4199 37.2383C15.5697 37.2708 15.6836 37.3392 15.7617 37.4434C15.8398 37.541 15.8789 37.6615 15.8789 37.8047C15.8659 37.9414 15.8073 38.0521 15.7031 38.1367C15.6055 38.2214 15.4915 38.2637 15.3613 38.2637H15.3223C14.9512 38.2311 14.5866 38.2051 14.2285 38.1855C13.8704 38.166 13.5156 38.1562 13.1641 38.1562C12.8125 38.1562 12.4642 38.166 12.1191 38.1855C11.7741 38.2051 11.4355 38.2311 11.1035 38.2637H11.0352C10.8854 38.2637 10.7617 38.2116 10.6641 38.1074C10.5664 38.0033 10.5176 37.8861 10.5176 37.7559C10.5176 37.6257 10.5599 37.5117 10.6445 37.4141C10.7357 37.3164 10.8464 37.2578 10.9766 37.2383C11.224 37.2188 11.4681 37.2025 11.709 37.1895C11.9499 37.1699 12.194 37.1536 12.4414 37.1406V36.1836C12.4414 34.7578 12.4609 33.4232 12.5 32.1797C11.9661 32.2318 11.4323 32.2676 10.8984 32.2871C10.3646 32.3066 9.83073 32.3164 9.29688 32.3164C8.75651 32.3164 8.22591 32.3066 7.70508 32.2871C7.19076 32.2676 6.68294 32.2318 6.18164 32.1797L6.06445 37.1211C6.31185 37.1406 6.5625 37.1602 6.81641 37.1797C7.07682 37.1992 7.33724 37.2188 7.59766 37.2383C7.72786 37.2578 7.83529 37.3164 7.91992 37.4141C8.01107 37.5117 8.05664 37.6257 8.05664 37.7559C8.05664 37.9056 8.0013 38.026 7.89062 38.1172C7.77995 38.2148 7.66276 38.2637 7.53906 38.2637H7.5C6.97917 38.2116 6.45833 38.1693 5.9375 38.1367C5.42318 38.1107 4.9056 38.0977 4.38477 38.0977C3.87044 38.0977 3.35938 38.1107 2.85156 38.1367C2.35026 38.1693 1.8457 38.2116 1.33789 38.2637H1.29883C1.14909 38.2637 1.02539 38.2116 0.927734 38.1074C0.830078 38.0033 0.78125 37.8861 0.78125 37.7559C0.78125 37.6257 0.823568 37.5117 0.908203 37.4141C0.999349 37.3164 1.11003 37.2578 1.24023 37.2383C1.48112 37.2188 1.72201 37.1992 1.96289 37.1797C2.21029 37.1602 2.45443 37.1406 2.69531 37.1211L2.91992 24.7969C2.36003 24.7578 1.79362 24.6992 1.2207 24.6211C1.09049 24.6016 0.983073 24.543 0.898438 24.4453C0.820312 24.3477 0.78125 24.2402 0.78125 24.123C0.78125 23.9538 0.839844 23.8236 0.957031 23.7324C1.07422 23.6413 1.18815 23.5957 1.29883 23.5957H1.35742C2.04753 23.6999 2.72786 23.7747 3.39844 23.8203C4.06901 23.8594 4.73633 23.8789 5.40039 23.8789C5.80404 23.8789 6.20117 23.8724 6.5918 23.8594C6.98242 23.8464 7.37305 23.8203 7.76367 23.7812H7.80273C7.93294 23.7812 8.04688 23.8268 8.14453 23.918C8.2487 24.0026 8.30729 24.11 8.32031 24.2402C8.32031 24.403 8.27148 24.5332 8.17383 24.6309C8.08268 24.7285 7.97201 24.7839 7.8418 24.7969C7.60091 24.8164 7.36003 24.8359 7.11914 24.8555C6.87826 24.875 6.63086 24.8913 6.37695 24.9043L6.2207 31.1445C6.70247 31.2031 7.20378 31.2454 7.72461 31.2715C8.24544 31.291 8.76953 31.3008 9.29688 31.3008C9.84375 31.3008 10.3841 31.291 10.918 31.2715C11.4583 31.252 11.9987 31.2161 12.5391 31.1641C12.5651 30.3958 12.5977 29.6829 12.6367 29.0254C12.6823 28.3678 12.7246 27.7754 12.7637 27.248C12.8092 26.7142 12.8483 26.2552 12.8809 25.8711C12.9199 25.4805 12.9525 25.1712 12.9785 24.9434C12.7181 24.9303 12.4609 24.9141 12.207 24.8945C11.9596 24.875 11.7122 24.8424 11.4648 24.7969C11.3411 24.7773 11.237 24.722 11.1523 24.6309C11.0742 24.5332 11.0352 24.4225 11.0352 24.2988C11.0352 24.1361 11.0905 24.0091 11.2012 23.918C11.3184 23.8268 11.4323 23.7812 11.543 23.7812H11.6211C11.8815 23.8333 12.1419 23.8691 12.4023 23.8887C12.6628 23.9082 12.9297 23.918 13.2031 23.918C13.6133 23.918 14.0332 23.8919 14.4629 23.8398C14.8991 23.7878 15.3516 23.7064 15.8203 23.5957H15.9375C16.0612 23.5957 16.1654 23.6348 16.25 23.7129C16.3411 23.7845 16.403 23.8789 16.4355 23.9961ZM28.7793 37.7363C28.7598 37.8665 28.7012 37.9707 28.6035 38.0488C28.5059 38.1335 28.3919 38.1758 28.2617 38.1758H28.2422C26.4909 38.0586 24.7819 38 23.1152 38C21.4225 38 19.7917 38.0586 18.2227 38.1758H18.1738C18.0241 38.1628 17.9004 38.1107 17.8027 38.0195C17.7051 37.9284 17.6562 37.8079 17.6562 37.6582C17.6562 37.528 17.7018 37.4173 17.793 37.3262C17.8841 37.2285 17.998 37.1732 18.1348 37.1602C18.3431 37.1406 18.5514 37.1276 18.7598 37.1211C18.9746 37.1081 19.1862 37.0951 19.3945 37.082V25.1777C19.1862 25.1647 18.9779 25.1582 18.7695 25.1582C18.5677 25.1582 18.3626 25.1582 18.1543 25.1582C18.0176 25.1452 17.9004 25.0931 17.8027 25.002C17.7051 24.9043 17.6562 24.7839 17.6562 24.6406C17.6562 24.4974 17.7083 24.377 17.8125 24.2793C17.9167 24.1751 18.0371 24.123 18.1738 24.123C18.4212 24.1361 18.6589 24.1426 18.8867 24.1426C19.1211 24.1426 19.3522 24.1426 19.5801 24.1426C20.9668 24.1426 22.3405 24.097 23.7012 24.0059C25.0618 23.9147 26.4193 23.778 27.7734 23.5957H27.8613C27.9915 23.5957 28.1022 23.6413 28.1934 23.7324C28.2845 23.8171 28.3398 23.918 28.3594 24.0352L28.7793 27.3359V27.4043C28.7793 27.554 28.724 27.6745 28.6133 27.7656C28.5091 27.8568 28.3919 27.9023 28.2617 27.9023C28.138 27.9023 28.0273 27.8633 27.9297 27.7852C27.8385 27.7005 27.7799 27.5931 27.7539 27.4629L27.4023 24.6797C26.6471 24.7839 25.8887 24.8685 25.127 24.9336C24.3717 24.9922 23.61 25.041 22.8418 25.0801V31.5156C22.998 31.5091 23.2064 31.4993 23.4668 31.4863C23.7272 31.4733 24.0072 31.4538 24.3066 31.4277C24.6126 31.4017 24.9219 31.3724 25.2344 31.3398C25.5534 31.3008 25.8496 31.2552 26.123 31.2031H26.2207C26.3574 31.2031 26.4779 31.2552 26.582 31.3594C26.6862 31.457 26.7383 31.571 26.7383 31.7012C26.7383 31.8314 26.6992 31.9421 26.6211 32.0332C26.543 32.1243 26.4421 32.1862 26.3184 32.2188C26.0189 32.2773 25.6966 32.3262 25.3516 32.3652C25.013 32.4043 24.681 32.4368 24.3555 32.4629C24.0365 32.4824 23.7435 32.4987 23.4766 32.5117C23.2096 32.5247 22.998 32.5345 22.8418 32.541V36.9844H23.1152C23.89 36.9844 24.668 36.9941 25.4492 37.0137C26.237 37.0332 27.028 37.069 27.8223 37.1211L28.1738 34.5039C28.1999 34.3737 28.2585 34.2695 28.3496 34.1914C28.4473 34.1068 28.5579 34.0645 28.6816 34.0645C28.8379 34.0645 28.9616 34.1198 29.0527 34.2305C29.1504 34.3411 29.1992 34.4518 29.1992 34.5625V34.6406L28.7793 37.7363ZM43.125 28C43.125 27.5443 43.0501 27.1471 42.9004 26.8086C42.7507 26.4635 42.5391 26.1673 42.2656 25.9199C41.9987 25.6725 41.6764 25.4707 41.2988 25.3145C40.9212 25.1517 40.5078 25.0247 40.0586 24.9336C39.6094 24.8359 39.1276 24.7708 38.6133 24.7383C38.1055 24.6992 37.5814 24.6797 37.041 24.6797C36.8913 24.6797 36.7546 24.6797 36.6309 24.6797C36.5072 24.6797 36.39 24.6862 36.2793 24.6992L36.1035 31.3398C36.3509 31.3919 36.6211 31.4277 36.9141 31.4473C37.207 31.4668 37.5098 31.4766 37.8223 31.4766C38.2064 31.4766 38.6035 31.4538 39.0137 31.4082C39.4238 31.3626 39.8242 31.2878 40.2148 31.1836C40.612 31.0794 40.9863 30.9427 41.3379 30.7734C41.6895 30.5977 41.9954 30.3828 42.2559 30.1289C42.5228 29.8685 42.7344 29.5625 42.8906 29.2109C43.0469 28.8594 43.125 28.4557 43.125 28ZM44.7461 34.1816C44.7461 34.1947 44.7493 34.2305 44.7559 34.2891C44.7624 34.3411 44.7656 34.4193 44.7656 34.5234C44.7656 35.0508 44.6842 35.5391 44.5215 35.9883C44.3652 36.4375 44.1406 36.8249 43.8477 37.1504C43.5547 37.4694 43.1999 37.7201 42.7832 37.9023C42.3665 38.0846 41.901 38.1758 41.3867 38.1758H41.3574C40.8822 38.1628 40.4622 38.0846 40.0977 37.9414C39.7396 37.7982 39.4238 37.6094 39.1504 37.375C38.8835 37.1341 38.6589 36.8542 38.4766 36.5352C38.2943 36.2161 38.1478 35.8743 38.0371 35.5098C37.9264 35.1387 37.8451 34.7546 37.793 34.3574C37.7474 33.9603 37.7246 33.5664 37.7246 33.1758C37.7246 33.0586 37.7279 32.9447 37.7344 32.834C37.7409 32.7168 37.7441 32.6126 37.7441 32.5215C37.4512 32.5215 37.1647 32.5085 36.8848 32.4824C36.6113 32.4564 36.3444 32.4238 36.084 32.3848L35.9375 37.4434C35.9375 37.5996 35.8854 37.7233 35.7812 37.8145C35.6836 37.8991 35.5632 37.9414 35.4199 37.9414C35.4134 37.9414 35.2799 37.9447 35.0195 37.9512C34.7656 37.9512 34.4368 37.9577 34.0332 37.9707C33.6296 37.9837 33.1836 38.0065 32.6953 38.0391C32.207 38.0716 31.7285 38.1172 31.2598 38.1758H31.2012C31.0514 38.1758 30.9277 38.1237 30.8301 38.0195C30.7324 37.9219 30.6836 37.8079 30.6836 37.6777C30.6836 37.5475 30.7227 37.4336 30.8008 37.3359C30.8854 37.2383 30.9928 37.1797 31.123 37.1602C31.3639 37.1276 31.6081 37.1016 31.8555 37.082C32.1094 37.0625 32.3568 37.043 32.5977 37.0234L32.8223 24.9824C32.3405 25.0605 31.9759 25.1289 31.7285 25.1875C31.4811 25.2461 31.3509 25.2754 31.3379 25.2754C31.2923 25.3079 31.2467 25.3242 31.2012 25.3242C31.0514 25.3242 30.9277 25.2721 30.8301 25.168C30.7324 25.0638 30.6836 24.9401 30.6836 24.7969C30.6836 24.6862 30.7161 24.5885 30.7812 24.5039C30.8464 24.4128 30.9342 24.3509 31.0449 24.3184C31.0645 24.3118 31.2012 24.2728 31.4551 24.2012C31.709 24.1296 32.0833 24.0547 32.5781 23.9766C33.0794 23.8984 33.6979 23.8268 34.4336 23.7617C35.1758 23.6966 36.0449 23.6641 37.041 23.6641C37.679 23.6966 38.2943 23.7422 38.8867 23.8008C39.4857 23.8594 40.0488 23.9505 40.5762 24.0742C41.1035 24.1914 41.5853 24.3509 42.0215 24.5527C42.4577 24.748 42.832 25.002 43.1445 25.3145C43.4635 25.627 43.7077 26.0046 43.877 26.4473C44.0527 26.8835 44.1406 27.401 44.1406 28C44.1406 28.4753 44.0658 28.9245 43.916 29.3477C43.7728 29.7643 43.571 30.1452 43.3105 30.4902C43.0501 30.8288 42.7344 31.125 42.3633 31.3789C41.9987 31.6263 41.5983 31.8216 41.1621 31.9648C41.1491 32.1146 41.1393 32.2676 41.1328 32.4238C41.1263 32.5801 41.123 32.7396 41.123 32.9023C41.123 33.0391 41.1263 33.2311 41.1328 33.4785C41.1393 33.7259 41.1556 33.9961 41.1816 34.2891C41.2077 34.582 41.2467 34.8815 41.2988 35.1875C41.3574 35.4935 41.4323 35.7734 41.5234 36.0273C41.6211 36.2747 41.7415 36.4798 41.8848 36.6426C42.028 36.7988 42.2005 36.877 42.4023 36.877C42.6628 36.877 42.8776 36.7891 43.0469 36.6133C43.2161 36.4375 43.3529 36.2259 43.457 35.9785C43.5612 35.7246 43.6328 35.4642 43.6719 35.1973C43.7174 34.9303 43.7402 34.7057 43.7402 34.5234C43.7402 34.4518 43.737 34.3932 43.7305 34.3477C43.724 34.3021 43.7207 34.2598 43.7207 34.2207C43.7207 34.071 43.7728 33.9505 43.877 33.8594C43.9876 33.7682 44.1081 33.7227 44.2383 33.7227C44.3685 33.7227 44.4824 33.7682 44.5801 33.8594C44.6777 33.944 44.7331 34.0514 44.7461 34.1816ZM59.6289 31.0566C59.6289 30.6139 59.5703 30.1517 59.4531 29.6699C59.3359 29.1816 59.1699 28.7064 58.9551 28.2441C58.7467 27.7754 58.4928 27.3327 58.1934 26.916C57.9004 26.4928 57.5749 26.125 57.2168 25.8125C56.8652 25.4935 56.4876 25.2428 56.084 25.0605C55.6803 24.8717 55.2669 24.7773 54.8438 24.7773C54.2708 24.7773 53.7533 24.862 53.291 25.0312C52.8288 25.2005 52.4154 25.4316 52.0508 25.7246C51.6927 26.0111 51.3802 26.3529 51.1133 26.75C50.8464 27.1471 50.625 27.5736 50.4492 28.0293C50.2799 28.4785 50.153 28.9505 50.0684 29.4453C49.9837 29.9336 49.9414 30.4186 49.9414 30.9004C49.9414 31.4277 49.9707 31.9551 50.0293 32.4824C50.0944 33.0098 50.1986 33.5176 50.3418 34.0059C50.4915 34.4876 50.6803 34.9401 50.9082 35.3633C51.1426 35.7799 51.429 36.1445 51.7676 36.457C52.1061 36.763 52.5 37.0039 52.9492 37.1797C53.4049 37.3555 53.9225 37.4434 54.502 37.4434C54.9642 37.4434 55.4102 37.3522 55.8398 37.1699C56.276 36.9876 56.6829 36.7435 57.0605 36.4375C57.4447 36.125 57.793 35.7604 58.1055 35.3438C58.4245 34.9206 58.6947 34.4746 58.916 34.0059C59.1439 33.5306 59.3197 33.0423 59.4434 32.541C59.5671 32.0332 59.6289 31.5384 59.6289 31.0566ZM60.6445 31.0566C60.6445 31.7402 60.5566 32.401 60.3809 33.0391C60.2116 33.6706 59.9707 34.2663 59.6582 34.8262C59.3522 35.3861 58.9811 35.8971 58.5449 36.3594C58.1087 36.8216 57.627 37.2188 57.0996 37.5508C56.5788 37.8828 56.0189 38.14 55.4199 38.3223C54.821 38.5046 54.2025 38.5957 53.5645 38.5957C52.9199 38.5957 52.2949 38.5046 51.6895 38.3223C51.0905 38.1465 50.5306 37.8958 50.0098 37.5703C49.4889 37.2383 49.0104 36.8444 48.5742 36.3887C48.1445 35.9264 47.7767 35.4186 47.4707 34.8652C47.1647 34.3053 46.9271 33.7031 46.7578 33.0586C46.5885 32.4141 46.5039 31.7467 46.5039 31.0566C46.5039 30.3665 46.5885 29.6992 46.7578 29.0547C46.9271 28.4102 47.1647 27.8112 47.4707 27.2578C47.7767 26.6979 48.1445 26.1901 48.5742 25.7344C49.0104 25.2721 49.4889 24.8783 50.0098 24.5527C50.5306 24.2207 51.0905 23.9668 51.6895 23.791C52.2949 23.6087 52.9199 23.5176 53.5645 23.5176C54.248 23.5176 54.8958 23.6152 55.5078 23.8105C56.1263 24.0059 56.696 24.276 57.2168 24.6211C57.7441 24.9661 58.2194 25.3763 58.6426 25.8516C59.0658 26.3268 59.4238 26.8444 59.7168 27.4043C60.0163 27.9642 60.2441 28.5534 60.4004 29.1719C60.5632 29.7904 60.6445 30.4186 60.6445 31.0566Z" fill="black"/>
<path d="M30.6719 14.5205C30.6719 14.5205 30.4375 14.5173 29.9688 14.5107L29.8613 20.5312C29.9167 20.5247 29.972 20.5215 30.0273 20.5215C30.1315 20.5215 30.2243 20.5215 30.3057 20.5215C30.387 20.5215 30.4554 20.5247 30.5107 20.5312L30.6719 14.5205ZM27.8691 13.8711C28.5462 13.9622 29.4316 14.0078 30.5254 14.0078C31.6191 14.0078 32.3678 13.9915 32.7715 13.959H32.791C32.8496 13.959 32.9033 13.9801 32.9521 14.0225C33.001 14.0615 33.027 14.0973 33.0303 14.1299C33.0368 14.1592 33.0449 14.1999 33.0547 14.252C33.0645 14.304 33.0775 14.374 33.0938 14.4619C33.11 14.5498 33.1296 14.6507 33.1523 14.7646C33.1784 14.8786 33.2061 14.9974 33.2354 15.1211C33.3102 15.4271 33.3786 15.6663 33.4404 15.8389L33.4502 15.9219C33.4502 15.9902 33.4225 16.0505 33.3672 16.1025C33.3151 16.1546 33.2598 16.1807 33.2012 16.1807C33.0775 16.1807 32.9945 16.1204 32.9521 16C32.7829 15.5085 32.6592 15.0055 32.5811 14.4912C32.21 14.5107 31.7428 14.5205 31.1797 14.5205L31.0186 20.5508C31.5817 20.5703 31.8893 20.611 31.9414 20.6729C31.9935 20.7314 32.0195 20.7982 32.0195 20.873C32.0195 20.9447 31.9919 21.0033 31.9365 21.0488C31.8844 21.0977 31.8291 21.1221 31.7705 21.1221H31.7412C31.292 21.0667 30.7744 21.0391 30.1885 21.0391C29.6025 21.0391 29.0964 21.0667 28.6699 21.1221H28.6406C28.569 21.1221 28.5072 21.0944 28.4551 21.0391C28.4062 20.9837 28.3818 20.9235 28.3818 20.8584C28.3818 20.7933 28.403 20.7363 28.4453 20.6875C28.5137 20.6191 28.8148 20.5736 29.3486 20.5508L29.4609 14.4912C28.9466 14.4717 28.4697 14.444 28.0303 14.4082C28.0107 14.4961 27.9863 14.6035 27.957 14.7305C27.931 14.8574 27.9017 14.9925 27.8691 15.1357C27.765 15.5589 27.6982 15.821 27.6689 15.9219C27.6169 16.0944 27.5306 16.1807 27.4102 16.1807C27.3353 16.1807 27.2734 16.1546 27.2246 16.1025C27.1758 16.0472 27.1514 16 27.1514 15.9609V15.8828C27.1514 15.8698 27.1644 15.8177 27.1904 15.7266C27.2197 15.6354 27.2588 15.4873 27.3076 15.2822C27.3564 15.0771 27.4004 14.8851 27.4395 14.7061C27.5339 14.2992 27.5811 14.0876 27.5811 14.0713C27.6169 13.9378 27.6999 13.8711 27.8301 13.8711H27.8691ZM36.2627 14.4521C36.2627 14.4521 36.1439 14.4521 35.9062 14.4521C35.7923 14.4521 35.6735 14.4489 35.5498 14.4424L35.4424 20.541H36.0918L36.2627 14.4521ZM41.5508 13.7979C41.681 13.7979 41.764 13.8646 41.7998 13.998C41.7998 14.1673 41.7331 14.2715 41.5996 14.3105C41.2611 14.3789 40.9225 14.4261 40.584 14.4521C40.4017 16.0928 40.3105 17.9727 40.3105 20.0918V20.5703C40.6198 20.5703 40.9469 20.5866 41.292 20.6191C41.445 20.6517 41.5215 20.7461 41.5215 20.9023C41.515 20.9707 41.4857 21.026 41.4336 21.0684C41.3848 21.1107 41.3278 21.1318 41.2627 21.1318H41.2432C40.8363 21.096 40.4766 21.0781 40.1641 21.0781C39.8418 21.0781 39.4984 21.096 39.1338 21.1318H39.0996C39.0247 21.1318 38.9629 21.1058 38.9141 21.0537C38.8652 21.0016 38.8408 20.943 38.8408 20.8779C38.8408 20.8128 38.862 20.7559 38.9043 20.707C38.9499 20.6582 39.0199 20.6289 39.1143 20.6191C39.2803 20.6029 39.5098 20.5866 39.8027 20.5703V20.0918C39.8027 19.3789 39.8125 18.7116 39.832 18.0898C39.3633 18.1354 38.8294 18.1582 38.2305 18.1582C37.6315 18.1582 37.1123 18.1354 36.6729 18.0898L36.6143 20.5605C36.7998 20.5736 37.0553 20.5931 37.3809 20.6191C37.446 20.6289 37.4997 20.6582 37.542 20.707C37.5876 20.7559 37.6104 20.8161 37.6104 20.8877C37.6104 20.9561 37.5827 21.013 37.5273 21.0586C37.472 21.1074 37.4134 21.1318 37.3516 21.1318H37.332C36.2936 21.0277 35.2666 21.0277 34.251 21.1318H34.2314C34.1566 21.1318 34.0947 21.1058 34.0459 21.0537C33.9971 21.0016 33.9727 20.943 33.9727 20.8779C33.9727 20.8128 33.9938 20.7559 34.0361 20.707C34.0817 20.6582 34.1501 20.6289 34.2412 20.6191C34.3356 20.6094 34.443 20.5996 34.5635 20.5898C34.6872 20.5801 34.8092 20.5703 34.9297 20.5605L35.042 14.3984C34.762 14.3789 34.4788 14.3496 34.1924 14.3105C34.1273 14.3008 34.0736 14.2715 34.0312 14.2227C33.9922 14.1738 33.9727 14.1136 33.9727 14.042C33.9727 13.9704 34.002 13.9118 34.0605 13.8662C34.1191 13.8206 34.1761 13.7979 34.2314 13.7979H34.2607C34.8857 13.8923 35.4945 13.9395 36.0869 13.9395C36.6794 13.9395 37.1383 13.9232 37.4639 13.8906H37.4834C37.5485 13.8906 37.6055 13.9134 37.6543 13.959C37.7064 14.0013 37.734 14.0599 37.7373 14.1348C37.7406 14.2064 37.7178 14.2666 37.6689 14.3154C37.6234 14.3643 37.5534 14.3919 37.459 14.3984C37.1693 14.4245 36.9398 14.4424 36.7705 14.4521L36.6924 17.5723C37.1221 17.6243 37.5534 17.6504 37.9863 17.6504C38.7578 17.6504 39.3796 17.6276 39.8516 17.582C39.8906 16.4557 39.9639 15.4189 40.0713 14.4717C39.7425 14.4554 39.5195 14.4359 39.4023 14.4131C39.2005 14.3805 39.0996 14.2926 39.0996 14.1494C39.0996 14.068 39.1273 14.0046 39.1826 13.959C39.2412 13.9134 39.2982 13.8906 39.3535 13.8906H39.3926C39.6204 13.9362 39.9134 13.959 40.2715 13.959C40.6296 13.959 41.0365 13.9053 41.4922 13.7979H41.5508ZM44.4902 14.5596C44.2624 14.5726 44.0296 14.5791 43.792 14.5791V20.5117C43.9059 20.5052 44.0215 20.502 44.1387 20.502C44.2591 20.502 44.3763 20.4987 44.4902 20.4922V14.5596ZM45.1396 20.4922C46.0153 20.4922 46.7998 20.515 47.4932 20.5605L47.6689 19.252C47.682 19.1868 47.7113 19.1348 47.7568 19.0957C47.8057 19.0534 47.8643 19.0322 47.9326 19.0322C48.0042 19.0322 48.0628 19.0599 48.1084 19.1152C48.1572 19.1706 48.1816 19.2259 48.1816 19.2812V19.3203L47.9717 20.8682C47.9619 20.9333 47.9326 20.9854 47.8838 21.0244C47.835 21.0667 47.778 21.0879 47.7129 21.0879H47.7031C46.8275 21.0293 45.9697 21 45.1299 21C44.29 21 43.4779 21.0293 42.6934 21.0879H42.6689C42.5941 21.0814 42.5322 21.0553 42.4834 21.0098C42.4346 20.9642 42.4102 20.9072 42.4102 20.8389C42.4102 20.7673 42.4329 20.7087 42.4785 20.6631C42.5241 20.6143 42.5892 20.5866 42.6738 20.5801C42.7617 20.5703 42.8577 20.5638 42.9619 20.5605C43.0693 20.554 43.1751 20.5475 43.2793 20.541V14.5889C43.1751 14.5824 43.071 14.5791 42.9668 14.5791H42.6592C42.5908 14.5726 42.5322 14.5465 42.4834 14.501C42.4346 14.4521 42.4102 14.3919 42.4102 14.3203C42.4102 14.2487 42.4362 14.1885 42.4883 14.1396C42.5404 14.0876 42.6136 14.0632 42.708 14.0664C42.8057 14.0697 42.9115 14.0713 43.0254 14.0713H43.3721C44.749 14.0713 46.1146 13.9801 47.4688 13.7979H47.5127C47.5778 13.7979 47.6331 13.8206 47.6787 13.8662C47.7243 13.9085 47.752 13.959 47.7617 14.0176L47.9717 15.668V15.7021C47.9717 15.777 47.944 15.8372 47.8887 15.8828C47.8366 15.9284 47.778 15.9512 47.7129 15.9512C47.651 15.9512 47.5957 15.9316 47.5469 15.8926C47.5013 15.8503 47.472 15.7965 47.459 15.7314L47.2832 14.3398C46.6387 14.4277 45.8786 14.4945 45.0029 14.54V17.7578C45.7028 17.7285 46.2497 17.6764 46.6436 17.6016H46.6924C46.7607 17.6016 46.821 17.6276 46.873 17.6797C46.9251 17.7285 46.9512 17.7855 46.9512 17.8506C46.9512 17.9873 46.8812 18.0736 46.7412 18.1094C46.3571 18.1842 45.7777 18.238 45.0029 18.2705V20.4922H45.1396Z" fill="black"/>
</svg>
